#tb 0: 1/22050
#media_type 0: audio
#codec_id 0: pcm_s16le
#sample_rate 0: 22050
#channel_layout 0: 4
#channel_layout_name 0: mono
0,          0,          0,     2048,     4096, 0x1fc6f1f1
0,       2048,       2048,     2048,     4096, 0xe5f7f442
0,       4096,       4096,     2048,     4096, 0x4f14ecb9
0,       6144,       6144,     2048,     4096, 0xd431eeee
0,       8192,       8192,     2048,     4096, 0x4c38ead6
0,      10240,      10240,     2048,     4096, 0x786cf071
0,      12288,      12288,     2048,     4096, 0xe291f200
0,      14336,      14336,     2048,     4096, 0x47d2f1dd
0,      16384,      16384,     2048,     4096, 0xd6a1f028
0,      18432,      18432,     2048,     4096, 0x2bf4ec79
